<svg xmlns="http://www.w3.org/2000/svg" width="48" height="31" viewBox="0 0 48 31"
fill="none">
<g clip-path="url(#clip0_1_135)">
    <path
        d="M35.3588 15.5102C35.2826 15.4295 35.1924 15.3632 35.0926 15.3145C34.3777 14.8872 33.6761 14.4386 32.9426 14.0485C32.433 13.7849 31.9033 13.5624 31.3584 13.3829C30.6928 13.1539 30.308 12.644 30.3972 11.9478C30.4173 11.8454 30.411 11.7396 30.3789 11.6404C30.3467 11.5412 30.2898 11.4518 30.2135 11.3807C29.9646 11.133 29.9792 11.0851 30.3373 10.8801C30.2703 10.7376 30.215 10.5897 30.1722 10.4381C30.1531 10.3261 30.1651 10.211 30.2069 10.1053C30.3187 9.82042 30.4651 9.55018 30.5716 9.26396C30.6528 9.04297 30.5716 8.90984 30.3054 8.90585C29.5598 8.8817 28.8289 8.6916 28.166 8.34938C27.8097 8.19617 27.4618 8.0242 27.1237 7.83418C26.5645 7.48007 26.0067 7.53199 25.441 7.76629C25.3251 7.81421 25.2492 7.95666 25.1547 8.0565L25.2053 8.15102L24.2734 8.09245C24.0644 8.07913 23.8288 7.99793 23.6517 8.06715C23.3349 8.18963 23.0447 8.1417 22.7412 8.08446L21.4259 7.83285C21.5337 8.15369 21.3566 8.13372 21.1929 8.0991C20.9267 8.05384 20.6497 7.98462 20.3755 7.94734C20.1785 7.91938 19.9761 7.92471 19.6952 7.91273L19.9801 8.28814C19.4643 8.49914 18.8972 8.55116 18.3517 8.43754C17.8061 8.32392 17.3069 8.04983 16.9182 7.65047C16.1195 6.78515 15.8998 5.70284 15.804 4.58857C15.6828 3.18942 16.0316 1.88479 16.6693 0.646715C16.7357 0.496923 16.7927 0.343078 16.8397 0.1861L16.7332 0.108887C16.5648 0.200015 16.4041 0.30464 16.2526 0.421733C15.5265 1.05524 15.0435 1.92178 14.8867 2.87258C14.7989 3.40508 14.8202 3.95489 14.7696 4.49405C14.7603 4.60056 14.6471 4.69907 14.5819 4.80024C14.4993 4.71105 14.3582 4.62718 14.3476 4.53399C14.3036 4.15059 14.297 3.76186 14.285 3.3758C14.277 3.14948 14.285 2.9245 14.285 2.61565C14.1258 2.71951 13.9909 2.85655 13.8896 3.01739C13.7882 3.17823 13.7229 3.35907 13.6979 3.54753C13.4756 4.66046 13.638 5.70683 14.293 6.65735C14.3732 6.79317 14.4444 6.93415 14.506 7.07936L14.3729 7.15923C14.1887 6.96324 14.0196 6.75364 13.867 6.53221C13.6686 6.20073 13.5249 5.83596 13.3345 5.49649C13.2523 5.37925 13.1567 5.27202 13.0496 5.17699C12.9977 5.32476 12.9418 5.4712 12.8965 5.6203C12.8902 5.66484 12.8934 5.71019 12.9058 5.75343C13.0299 6.67733 13.4574 7.53382 14.1213 8.1883C14.9027 8.96975 15.8373 9.51024 16.841 9.94955C16.9489 9.99748 17.1166 10.1053 17.1153 10.1825C17.1295 10.6569 17.0951 11.1316 17.0128 11.599C16.8224 12.443 15.985 12.7199 15.2741 12.218C14.8348 11.9065 14.6857 11.8985 14.305 12.3046C13.9237 12.7097 13.4368 13.0002 12.8992 13.1432C12.4093 13.2764 11.9233 13.4388 11.4348 13.6012C11.1824 13.6823 10.9367 13.7829 10.6999 13.9021C10.6081 13.95 10.5575 14.0791 10.4883 14.1683L10.7372 14.3427L10.3378 14.6183L10.6147 14.8406C10.5861 14.879 10.562 14.9205 10.5428 14.9644C10.5135 15.0576 10.4922 15.1534 10.467 15.248C10.5708 15.2666 10.6853 15.3225 10.7745 15.2959C10.9847 15.2257 11.1891 15.1389 11.3855 15.0363C12.1989 14.6369 13.023 14.2375 13.8191 13.8075C14.6152 13.3775 15.342 13.4494 16.1155 13.8834C16.5508 14.127 17.0607 14.2509 17.5479 14.3866C17.9593 14.5011 18.3374 14.364 18.6662 14.0991C18.9591 13.8621 19.2466 13.6185 19.5408 13.3815C19.7648 13.188 20.034 13.0541 20.3235 12.9922C20.6129 12.9303 20.9133 12.9424 21.1969 13.0274C21.506 13.1264 21.8088 13.2443 22.1035 13.3802C22.6866 13.6238 23.2524 13.9127 23.8488 14.1177C24.7643 14.451 25.763 14.48 26.6963 14.2003C27.4472 13.9646 28.0635 14.0259 28.5601 14.6755C28.801 14.987 29.0926 15.0749 29.5 14.9538C30.4145 14.6769 31.3171 14.6982 32.1705 15.1947C32.5539 15.4184 32.9373 15.6433 33.334 15.839C33.7043 16.0169 34.0843 16.1738 34.4722 16.309C34.5998 16.3388 34.7334 16.3293 34.8556 16.2818C34.9777 16.2343 35.0826 16.1509 35.1565 16.0427L35.5692 15.8816C35.5095 15.7522 35.4391 15.628 35.3588 15.5102Z"
        fill="white" />
    <path
        d="M44.4767 19.9847C44.2432 19.8193 43.9906 19.6826 43.7246 19.5773C43.3505 19.4442 42.9538 19.3816 42.573 19.2685C41.6393 18.9932 40.6459 18.9932 39.7121 19.2685C38.1013 19.7411 36.7834 20.6676 36.0578 22.2651C35.9726 22.4528 35.9819 22.6898 35.8781 22.8629C35.4787 23.5418 35.5466 24.294 35.4787 25.3443C35.536 25.6931 35.6438 26.3428 35.753 26.9924C35.934 28.0641 36.5837 28.8442 37.4157 29.4513C38.269 30.0729 39.157 30.6134 40.2899 30.704C41.1033 30.7705 41.8808 30.913 42.7155 30.7452C43.6207 30.5642 44.3369 30.1262 44.9879 29.5311C45.2315 29.3088 45.4113 29.0173 45.6469 28.7843C46.5215 27.9216 46.9249 26.842 47.0873 25.6585C47.2497 24.475 47.0314 23.3847 46.5868 22.2944C46.1648 21.2427 45.374 20.5691 44.4767 19.9847ZM43.3318 27.3066C42.5732 27.8868 41.6169 28.1455 40.6693 28.0268C39.4446 27.8764 38.8215 27.1628 38.4062 26.0472C38.0441 25.0794 38.2318 24.2274 38.5686 23.3474C38.6338 23.1824 38.7353 23.0341 38.8655 22.9134C39.3886 22.4302 39.8865 21.9935 40.6946 21.903C41.3429 21.8298 41.9353 21.9509 42.5131 22.0787C43.3678 22.2678 43.8364 22.984 44.1013 23.7721C44.261 24.246 44.2704 24.7705 44.3449 25.2551C44.265 26.0938 43.9455 26.8566 43.3318 27.3119V27.3066Z"
        fill="white" />
    <path
        d="M25.2387 4.75231C25.1748 4.83086 25.1548 5.05717 25.2081 5.09844C25.4396 5.2614 25.6811 5.4099 25.9309 5.54308C26.0042 5.65624 26.092 5.81599 26.1972 5.82398C26.5726 5.85459 26.952 5.83596 27.3581 5.83596L26.7257 6.59078L26.98 6.70128L26.5673 7.02477C26.6671 7.08335 26.7177 7.12062 26.7736 7.14592C27.2276 7.35093 27.6895 7.53864 28.1342 7.76096C28.8328 8.1009 29.5817 8.32567 30.3521 8.42659C30.6609 8.47185 30.8686 8.38931 30.9525 8.06315C30.9991 7.89191 31.0634 7.72595 31.1442 7.56792C31.3252 7.17781 31.5819 6.82749 31.8993 6.53728C32.2167 6.24706 32.5885 6.02271 32.9933 5.87723C33.9345 5.53243 34.3791 4.88277 34.2819 3.92693C34.2526 3.63539 34.1049 3.4996 33.8293 3.51957C33.5196 3.53651 33.2114 3.57431 32.9067 3.63272C32.3862 3.73922 31.9615 3.64737 31.5901 3.23335C31.1734 2.76075 30.6582 2.4479 29.9793 2.54775C29.5692 2.59992 29.1536 2.50918 28.8025 2.29081C28.5535 2.1497 28.2859 1.98729 28.0144 1.958C27.1359 1.83664 26.2444 2.05572 25.5222 2.57038C25.4151 2.66672 25.3167 2.77229 25.228 2.88589C25.4291 2.94979 25.5635 2.98839 25.6926 3.03765C25.7592 3.06294 25.8724 3.1122 25.871 3.14548C25.8591 3.43437 26.0907 3.41173 26.2571 3.45833C26.3902 3.49693 26.5234 3.51957 26.6498 3.55019L26.6631 3.64204C26.3583 3.85771 26.0494 4.06671 25.7512 4.2917C25.5635 4.42534 25.3916 4.57987 25.2387 4.75231ZM33.997 3.91628C33.997 3.9895 34.0423 4.1426 33.9864 4.20117C33.8818 4.31795 33.7413 4.39663 33.587 4.42482C33.4728 4.44576 33.355 4.42503 33.2548 4.36639C33.1546 4.30776 33.0788 4.21512 33.0412 4.10532L33.997 3.91628Z"
        fill="white" />
    <path
        d="M13.1361 16.5607C13.2903 16.5392 13.4413 16.4994 13.5861 16.4422C14.0148 16.2106 14.4381 15.9696 14.8495 15.71C15.4086 15.3572 15.9983 15.1242 16.6679 15.1775C16.9886 15.2104 17.3072 15.2606 17.6225 15.3279C18.5184 15.5063 19.2785 15.304 19.9122 14.6117C20.2608 14.2575 20.6312 13.9253 21.0212 13.6173C21.2022 13.4642 21.1623 13.3257 20.9799 13.2765C20.7743 13.2079 20.5533 13.2005 20.3435 13.2552C20.0967 13.3511 19.874 13.5002 19.6912 13.6918C18.8166 14.5877 17.8275 15.0018 16.5654 14.6037C16.1521 14.4756 15.7256 14.3948 15.2941 14.3628C15.0102 14.3297 14.7227 14.3758 14.4634 14.4959C13.827 14.8407 13.1987 15.2254 13.0629 16.0535L13.2799 16.1373L13.0922 16.4595L13.1361 16.5607Z"
        fill="white" />
    <path
        d="M31.9136 11.8188C31.6048 11.7988 31.2986 11.7403 30.9911 11.7163C30.7794 11.7003 30.6902 11.8161 30.7155 12.0278C30.7343 12.2685 30.8371 12.495 31.006 12.6675C31.1749 12.8401 31.3991 12.9477 31.6394 12.9717C31.9575 13.0076 32.2797 13.001 32.5992 13.0303C33.3793 13.1008 34.1608 13.1714 34.9396 13.2646C35.1819 13.2938 35.4108 13.3804 35.3549 13.005L35.8648 13.0928L35.7477 12.7387L36.2655 12.6895C36.233 12.5505 36.1572 12.4255 36.049 12.3325C35.9409 12.2394 35.806 12.1831 35.6638 12.1716C34.901 12.0531 34.1328 11.9666 33.3647 11.8934C32.8828 11.8468 32.3995 11.8521 31.9136 11.8188Z"
        fill="white" />
    <path
        d="M14.578 26.3775C15.438 26.2856 16.2994 26.2097 17.1607 26.1352C18.5971 26.0101 20.0335 25.8956 21.4686 25.7678C21.888 25.7305 21.9852 25.6346 22.0198 25.2073C22.1078 24.2219 21.9895 23.229 21.6723 22.2919C21.2623 21.1084 20.4396 20.1898 19.3746 19.5495C18.2789 18.8905 17.0568 18.6948 15.7802 18.8705C14.8179 18.9917 13.915 19.4021 13.1909 20.0473C12.7848 20.4095 12.4534 20.8568 12.1072 21.2801C11.4975 22.0256 11.2392 22.9202 11.1194 23.8494C10.9875 24.851 11.0512 25.8688 11.3071 26.8461C11.6479 28.1627 12.3482 29.2424 13.4505 29.9812C13.6427 30.1102 13.8433 30.2262 14.0509 30.3287C14.1627 30.3846 14.2758 30.4352 14.3903 30.4818C15.2066 30.811 16.0867 30.9521 16.965 30.8944C17.0395 30.8944 17.1154 30.9024 17.1886 30.8944C17.2136 30.8931 17.2385 30.8904 17.2632 30.8865C18.0034 30.7693 18.7795 30.7533 19.4757 30.5017C20.6353 30.089 21.3541 29.1398 21.9412 28.0921C22.0451 27.9098 22.0198 27.782 21.8414 27.6781C21.4966 27.4784 21.1624 27.2561 20.8043 27.0831C20.0202 26.7036 20.0056 26.705 19.4118 27.3493C19.0202 27.7647 18.4926 28.0259 17.9248 28.0855C17.5698 28.1343 17.2175 28.1734 16.8678 28.2026C15.8028 28.2918 14.9242 27.955 14.2785 27.0844C13.971 26.6624 14.0628 26.4267 14.578 26.3775ZM13.9244 23.4554C14.1281 22.6087 14.7231 22.1507 15.4873 21.8379C16.2228 21.5327 17.0467 21.5175 17.793 21.7953C18.6171 22.0815 19.1908 22.6193 19.3679 23.5885C18.8208 23.6218 18.3162 23.6564 17.8103 23.6843C16.6282 23.7482 15.4456 23.8099 14.2625 23.8694C13.9244 23.888 13.8445 23.7895 13.9244 23.4554Z"
        fill="white" />
    <path
        d="M9.58306 26.4931C9.40067 25.914 9.11445 25.4281 8.60991 25.0674C8.47678 24.9728 8.32103 24.861 8.5074 24.668C8.80225 24.3689 9.0324 24.0123 9.18356 23.6205C9.33471 23.2286 9.40363 22.8098 9.38603 22.3902C9.38603 21.7858 9.27288 21.2746 8.8735 20.8326C7.94162 19.8009 6.86063 19.09 5.39492 19.1206C4.59616 19.1379 3.7841 19.078 2.97868 19.0621C2.43819 19.0514 1.89637 19.0621 1.35588 19.0527C1.13622 19.0527 1.05368 19.1273 1.05102 19.3669C1.04037 20.8167 1.00842 22.2677 0.984456 23.7188C0.964487 24.9356 0.948514 26.151 0.924552 27.3678C0.924552 27.5888 0.865976 27.8084 0.873963 28.0334C0.895263 28.6511 0.936531 29.2675 0.968481 29.8852H0.933871C0.933871 30.0849 0.947184 30.2846 0.933871 30.4843C0.909909 30.7572 1.00043 30.873 1.28798 30.8344C1.49532 30.8059 1.70523 30.801 1.91368 30.8197C3.40735 30.9529 4.89969 30.8703 6.38671 30.7465C8.01084 30.6134 9.09182 29.7507 9.61102 28.1972C9.7863 27.6411 9.77649 27.0432 9.58306 26.4931ZM3.71753 22.1878C3.71753 21.9216 3.8227 21.7885 4.12623 21.8297C4.38225 21.85 4.63937 21.8522 4.8957 21.8364C5.18724 21.8644 5.58396 21.8936 5.97801 21.9442C6.23228 21.9762 6.43996 22.1319 6.44395 22.3862C6.44783 22.7114 6.40296 23.0354 6.31082 23.3474C6.27308 23.4183 6.21919 23.4793 6.15352 23.5256C6.08784 23.5718 6.01222 23.602 5.93275 23.6136C5.28576 23.6855 4.63344 23.7175 3.98245 23.7614C3.94725 23.7686 3.91081 23.7673 3.87624 23.7574C3.84167 23.7476 3.80999 23.7296 3.78386 23.7049C3.75774 23.6802 3.73795 23.6496 3.72617 23.6156C3.71439 23.5816 3.71097 23.5454 3.7162 23.5098C3.7162 23.0718 3.71354 22.6298 3.71753 22.1878ZM5.83823 28.1C5.46015 28.1665 5.07009 28.1705 4.68536 28.2025V28.1466C4.42976 28.1466 4.17548 28.1466 3.92121 28.1466C3.74682 28.1466 3.69224 28.068 3.69889 27.9016C3.7162 27.4477 3.73484 26.9937 3.72952 26.5411C3.72245 26.5001 3.72452 26.4581 3.73559 26.418C3.74665 26.3779 3.76644 26.3408 3.79353 26.3092C3.82062 26.2777 3.85435 26.2525 3.89231 26.2355C3.93026 26.2185 3.9715 26.2101 4.01307 26.2109C4.69601 26.151 5.38027 26.0858 6.06454 26.0565C6.37472 26.0432 6.66893 26.4692 6.71286 26.9138C6.77543 27.5648 6.48123 27.9881 5.83823 28.1Z"
        fill="white" />
    <path
        d="M34.1462 27.3906C33.643 27.1456 33.1065 26.9646 32.5806 26.7662C32.3144 26.6624 32.1094 26.7662 31.907 26.9752C31.615 27.2902 31.2891 27.5719 30.9352 27.8152C30.3108 28.2226 29.5906 28.2412 28.8811 28.144C28.3486 28.0722 27.7868 28.0282 27.3608 27.6475C26.3077 26.7063 26.0481 25.5175 26.357 24.1862C26.4207 23.9056 26.5267 23.6363 26.6712 23.3875C26.8416 23.0972 27.0266 22.7711 27.2929 22.5887C28.4417 21.8046 30.1032 21.6422 31.2973 22.4782C31.4293 22.5795 31.5727 22.6648 31.7246 22.7325C31.7773 22.7557 31.8342 22.7677 31.8917 22.7677C31.9492 22.7677 32.0061 22.7557 32.0588 22.7325C32.6086 22.3225 33.1504 21.9004 33.6763 21.4598C33.7119 21.4082 33.7338 21.3483 33.7398 21.2859C33.7459 21.2235 33.7359 21.1605 33.7109 21.103C33.4233 20.7702 33.1571 20.3642 32.7856 20.1711C31.6727 19.5881 30.5411 18.9916 29.2259 19.1288C27.9518 19.1115 26.8602 19.592 25.8192 20.239C24.8315 20.8402 24.1222 21.808 23.8462 22.9308C23.7086 23.4215 23.605 23.921 23.5361 24.4258C23.4375 25.2246 23.4176 26.0167 23.6905 26.7915C23.9067 27.4203 24.212 28.0147 24.5971 28.5567C24.9685 29.0733 25.3532 29.5578 25.8884 29.912C27.3048 30.8438 28.8491 31.0688 30.5025 30.7959C32.1906 30.5164 33.4885 29.6843 34.3632 28.2079C34.6148 27.7899 34.5962 27.6102 34.1462 27.3906Z"
        fill="white" />
</g>
<defs>
    <clipPath id="clip0_1_135">
        <rect width="46.2706" height="30.8" fill="white"
            transform="translate(0.873962 0.107666)" />
    </clipPath>
</defs>
</svg>