<svg xmlns="http://www.w3.org/2000/svg" width="83" height="28"
                                    viewBox="0 0 83 28" fill="none">
                                    <path
                                        d="M35.9777 14.6002C35.9777 18.4775 32.9444 21.3346 29.222 21.3346C25.4995 21.3346 22.4663 18.4775 22.4663 14.6002C22.4663 10.6955 25.4995 7.86572 29.222 7.86572C32.9444 7.86572 35.9777 10.6955 35.9777 14.6002ZM33.0203 14.6002C33.0203 12.1772 31.2623 10.5194 29.222 10.5194C27.1816 10.5194 25.4236 12.1772 25.4236 14.6002C25.4236 16.9988 27.1816 18.6809 29.222 18.6809C31.2623 18.6809 33.0203 16.9958 33.0203 14.6002Z"
                                        fill="white" />
                                    <path
                                        d="M50.5519 14.6002C50.5519 18.4775 47.5187 21.3346 43.7962 21.3346C40.0737 21.3346 37.0405 18.4775 37.0405 14.6002C37.0405 10.6986 40.0737 7.86572 43.7962 7.86572C47.5187 7.86572 50.5519 10.6955 50.5519 14.6002ZM47.5946 14.6002C47.5946 12.1772 45.8366 10.5194 43.7962 10.5194C41.7558 10.5194 39.9978 12.1772 39.9978 14.6002C39.9978 16.9988 41.7558 18.6809 43.7962 18.6809C45.8366 18.6809 47.5946 16.9958 47.5946 14.6002Z"
                                        fill="white" />
                                    <path
                                        d="M64.5189 8.27258V20.363C64.5189 25.3364 61.5858 27.3677 58.1184 27.3677C54.8544 27.3677 52.89 25.1846 52.1491 23.3993L54.7239 22.3275C55.1824 23.4236 56.3058 24.717 58.1154 24.717C60.3349 24.717 61.7103 23.3477 61.7103 20.7699V19.8013H61.6071C60.9452 20.6181 59.67 21.3316 58.0607 21.3316C54.6935 21.3316 51.6087 18.3986 51.6087 14.6245C51.6087 10.8231 54.6935 7.86572 58.0607 7.86572C59.6669 7.86572 60.9422 8.57925 61.6071 9.37171H61.7103V8.27562L64.5189 8.27562V8.27258ZM61.9198 14.6245C61.9198 12.2531 60.3379 10.5194 58.3249 10.5194C56.2845 10.5194 54.5751 12.2531 54.5751 14.6245C54.5751 16.9715 56.2845 18.6809 58.3249 18.6809C60.3379 18.6809 61.9198 16.9715 61.9198 14.6245Z"
                                        fill="white" />
                                    <path d="M69.1491 1.18579V20.9216H66.2646V1.18579L69.1491 1.18579Z" fill="white" />
                                    <path
                                        d="M80.3894 16.8168L82.6848 18.347C81.9439 19.4431 80.1586 21.3317 77.0737 21.3317C73.248 21.3317 70.3909 18.3744 70.3909 14.5972C70.3909 10.5924 73.2723 7.86279 76.7428 7.86279C80.2375 7.86279 81.947 10.644 82.5057 12.147L82.8123 12.9121L73.8097 16.6407C74.499 17.9918 75.5708 18.681 77.0737 18.681C78.5797 18.681 79.6242 17.9402 80.3894 16.8168ZM73.3239 14.3938L79.3418 11.895C79.0109 11.0539 78.015 10.4679 76.843 10.4679C75.34 10.4679 73.248 11.7948 73.3239 14.3938Z"
                                        fill="white" />
                                    <path
                                        d="M11.5478 12.8482L11.5478 9.9911L21.1759 9.9911C21.27 10.489 21.3186 11.0781 21.3186 11.7157C21.3186 13.8593 20.7326 16.51 18.844 18.3985C17.0071 20.3114 14.66 21.3316 11.5509 21.3316C5.78803 21.3316 0.942139 16.6375 0.942139 10.8747C0.942139 5.1118 5.78803 0.417725 11.5509 0.417725C14.739 0.417725 17.0101 1.66867 18.7165 3.29915L16.7004 5.31523C15.4768 4.16752 13.819 3.27486 11.5478 3.27486C7.33957 3.27486 4.04825 6.66638 4.04825 10.8747C4.04825 15.0829 7.33957 18.4744 11.5478 18.4744C14.2774 18.4744 15.832 17.3784 16.8279 16.3825C17.6356 15.5748 18.1669 14.421 18.3764 12.8452L11.5478 12.8482Z"
                                        fill="white" />
                                </svg>