<svg xmlns="http://www.w3.org/2000/svg" width="104" height="28" viewBox="0 0 104 28"
fill="none">
<path fill-rule="evenodd" clip-rule="evenodd"
    d="M91.3054 8.36944C91.3054 7.88756 90.9173 7.49733 90.4349 7.49733H89.1451C88.6627 7.49733 88.2747 7.88921 88.2747 8.37109V21.8599C88.2747 22.3424 88.6638 22.7326 89.1451 22.7326H90.436C90.9173 22.7326 91.3054 22.3402 91.3054 21.8588V8.36944ZM92.9497 8.72784V9.36943C92.9497 9.63397 93.1665 9.84857 93.4321 9.84857H102.329C102.736 9.84857 103.065 9.52091 103.065 9.11532V8.02971C103.065 7.62357 102.732 7.25639 102.329 7.29646C102.329 7.29646 93.7269 8.14058 93.4514 8.17131C93.3129 8.1835 93.1842 8.24768 93.0911 8.35093C92.998 8.45418 92.9475 8.58885 92.9497 8.72784ZM85.7461 22.7331C83.5326 22.7331 82.1391 21.0542 82.1391 19.186L82.138 13.7887H81.5047C81.4245 13.7888 81.3452 13.7731 81.2711 13.7424C81.197 13.7118 81.1297 13.6669 81.073 13.6103C81.0162 13.5537 80.9712 13.4865 80.9405 13.4124C80.9097 13.3384 80.8939 13.2591 80.8938 13.1789V12.2755C80.8938 11.938 81.1682 11.6663 81.5069 11.6663L82.138 11.6674L82.1369 8.34913C82.1369 7.87933 82.5151 7.49843 82.986 7.49843H84.2445C84.7132 7.49843 85.0936 7.88207 85.0936 8.35188V11.668L87.054 11.6674C87.3916 11.6674 87.6671 11.9386 87.6671 12.2766V13.18C87.6671 13.5181 87.3927 13.7898 87.0562 13.7898L85.0936 13.7892L85.0958 18.7815C85.0958 19.7612 85.6896 20.4302 86.75 20.4302H86.9289C87.2955 20.4302 87.5935 20.7249 87.5935 21.0916V22.0712C87.5935 22.439 87.2966 22.7337 86.93 22.7337H85.7461V22.7331ZM65.0174 11.2783C61.4389 11.2783 59.4324 14.0785 59.4324 17.0296C59.4324 20.1745 61.5816 22.9423 65.041 22.9423C67.4087 22.9423 69.7424 21.6947 70.1831 19.647C70.243 19.3704 70.0569 19.0082 69.6678 19.006L67.9751 19.0071C67.6683 19.0071 67.4175 19.1542 67.2666 19.3759C66.7819 20.0855 66.0734 20.4626 65.0251 20.4626C63.5427 20.4626 62.5158 19.2952 62.4384 18.0005H69.6321C70.2945 18.0005 70.5915 17.6405 70.5915 17.029C70.5915 14.1526 68.8873 11.2783 65.0174 11.2783ZM65.0174 13.5878C66.3379 13.5878 67.4784 14.5274 67.5942 15.7991H62.4598C62.5756 14.5274 63.6969 13.5878 65.0174 13.5878ZM97.8004 11.2783C94.2214 11.2783 92.2143 14.0785 92.2143 17.0296C92.2143 20.1745 94.3635 22.9423 97.8229 22.9423C100.191 22.9423 102.524 21.6947 102.965 19.647C103.025 19.3704 102.839 19.0082 102.45 19.006L100.758 19.0071C100.45 19.0071 100.199 19.1542 100.048 19.3759C99.5638 20.0855 98.8553 20.4626 97.807 20.4626C96.3246 20.4626 95.2977 19.2952 95.2203 18.0005H102.414C103.076 18.0005 103.373 17.6405 103.373 17.029C103.373 14.1526 101.669 11.2783 97.8004 11.2783ZM97.8004 13.5878C99.1198 13.5878 100.261 14.5274 100.376 15.7991H95.2417C95.3569 14.5274 96.4782 13.5878 97.8004 13.5878Z"
    fill="white" />
<path fill-rule="evenodd" clip-rule="evenodd"
    d="M79.7182 7.64828L56.4148 7.64828C55.8852 7.64828 55.4576 8.07857 55.4576 8.60821L55.5372 17.7602C55.5372 17.7602 50.5164 8.68944 50.2546 8.22731C50.0081 7.79208 49.4796 7.39087 48.7474 7.39087H46.8314C46.3012 7.39087 45.8726 7.82116 45.8726 8.3508L45.8737 21.7728C45.8737 22.3024 46.3018 22.7322 46.832 22.7322H48.0608C48.3154 22.7316 48.5593 22.63 48.739 22.4497C48.9186 22.2694 49.0194 22.0252 49.0191 21.7706L48.9417 12.3618C48.9417 12.3618 54.0114 21.522 54.2282 21.8831C54.5207 22.371 55.0163 22.7322 55.7331 22.7322H57.4933C58.024 22.7322 58.4516 22.3024 58.4516 21.7728L58.4505 9.92324L79.7193 9.92324C79.8052 9.92346 79.8903 9.90673 79.9697 9.874C80.0492 9.84127 80.1214 9.7932 80.1822 9.73253C80.243 9.67186 80.2913 9.59978 80.3242 9.52044C80.3571 9.44109 80.3741 9.35602 80.3741 9.27012V8.30141C80.3736 8.12784 80.3043 7.96156 80.1813 7.83909C80.0583 7.71662 79.8918 7.64799 79.7182 7.64828Z"
    fill="white" />
<path fill-rule="evenodd" clip-rule="evenodd"
    d="M75.946 13.4759C76.9591 13.4759 77.7171 13.8437 77.9904 14.4787C78.121 14.7844 78.3751 14.8431 78.7237 14.8431H80.1172C80.3488 14.8431 80.6111 14.645 80.6111 14.3437C80.6111 12.7235 78.6803 11.2773 75.9449 11.2773C73.115 11.2773 71.2572 12.6258 71.2572 14.7723C71.2572 16.4156 72.5541 17.3931 74.1502 17.8102C74.8779 18.0012 76.1205 18.3074 76.7248 18.466C77.3768 18.6373 77.9597 18.836 77.9597 19.3952C77.9597 20.2761 77.0294 20.5764 76.0162 20.5764C75.0546 20.5764 74.0975 20.1466 73.823 19.4617C73.6633 19.0637 73.3856 19.0061 72.9636 19.0061L71.5464 19.0061C71.2989 19.0061 71.0146 19.2185 71.0146 19.5412V19.7235C71.0146 21.2915 73.1178 22.9331 76.0184 22.9331C78.0755 22.9331 80.9421 22.0785 80.9421 19.3195C80.9421 17.7213 79.8735 16.6148 78.1337 16.1735C77.4531 16.0012 75.8181 15.5852 75.4624 15.493C74.828 15.3288 74.2374 15.1219 74.2374 14.5786C74.2374 13.7559 74.9976 13.4759 75.946 13.4759ZM24.3613 4.54733C24.4851 4.54733 24.6039 4.49812 24.6915 4.41053C24.7791 4.32294 24.8283 4.20414 24.8283 4.08026C24.8283 3.95639 24.7791 3.83759 24.6915 3.75C24.6039 3.66241 24.4851 3.6132 24.3613 3.6132C24.2374 3.6132 24.1186 3.66241 24.031 3.75C23.9434 3.83759 23.8942 3.95639 23.8942 4.08026C23.8942 4.20414 23.9434 4.32294 24.031 4.41053C24.1186 4.49812 24.2374 4.54733 24.3613 4.54733ZM18.0891 3.72022C18.1933 3.72022 18.2933 3.67882 18.367 3.60512C18.4407 3.53142 18.4821 3.43147 18.4821 3.32725C18.4821 3.22302 18.4407 3.12307 18.367 3.04937C18.2933 2.97568 18.1933 2.93428 18.0891 2.93428C17.9849 2.93428 17.8849 2.97568 17.8112 3.04937C17.7375 3.12307 17.6961 3.22302 17.6961 3.32725C17.6961 3.43147 17.7375 3.53142 17.8112 3.60512C17.8849 3.67882 17.9849 3.72022 18.0891 3.72022ZM13.3871 13.3294L13.1956 13.1241C13.7291 12.6285 14.2938 11.8382 14.3855 11.3744C14.4706 10.943 15.0908 11.0116 14.9728 11.4809C14.8229 12.0808 14.0886 12.8053 13.3871 13.3294ZM9.40748 3.88378C8.4256 4.30858 8.28181 5.31517 8.97061 5.91944C9.80101 6.64721 11.1704 6.0133 11.0386 4.89914C12.1523 4.95622 12.8707 3.80584 12.6934 2.99794C13.189 2.57368 13.2384 1.66699 12.644 1.31079C12.0068 0.929345 11.4069 1.07534 11.0249 1.81134C10.0046 1.73724 9.02714 2.53966 9.40748 3.88378L8.93493 3.67741C8.31199 2.37445 9.40309 1.0435 10.7412 1.35031C10.8381 1.1404 10.9792 0.953898 11.1549 0.803557C11.3306 0.653217 11.5366 0.542581 11.759 0.479213C11.9813 0.415845 12.2148 0.401241 12.4433 0.436397C12.6718 0.471554 12.8901 0.55564 13.0831 0.682911C13.942 1.20322 14.1237 2.54569 13.2104 3.19662C13.6413 4.44964 12.7823 5.47323 11.4755 5.35633C11.3224 6.96774 9.8021 7.17575 8.82022 6.41066C8.26589 5.97872 8.03922 5.37993 7.93219 4.92823C7.81968 4.45019 7.81968 4.02209 7.34768 3.52977C6.99257 3.15821 6.35646 3.17083 6.35646 3.17083C6.35646 2.00014 5.26152 0.928797 3.90204 1.44746C3.42015 1.03253 2.82466 0.991363 2.39821 1.50453C2.15013 1.80256 2.01347 2.58576 2.778 2.9447C2.73849 4.01166 3.55187 4.69278 4.74122 4.59837C4.78787 5.16533 5.4163 5.69222 5.97337 5.76741L5.96843 6.05227C5.37403 5.99519 5.05241 6.20265 4.65615 6.69387C3.25824 6.628 2.27911 7.24984 2.31972 8.25258C1.33729 8.43919 1.15343 9.46773 1.7105 10.0155C2.26758 10.5632 3.08426 10.3486 3.36252 9.6944C4.35373 9.8832 5.22914 9.173 5.26921 8.35358C6.1951 8.35358 6.60015 7.98749 6.75163 7.13624L7.10124 7.16478C7.20443 8.08135 6.78017 8.95126 5.67535 8.84753C5.64681 9.94193 4.5848 10.5539 3.59414 10.1757C3.13146 11.0446 2.07164 11.392 1.18197 10.544C0.32248 9.72514 0.636418 8.32284 1.7599 7.9831C1.7857 6.91011 2.57823 5.8909 4.11773 6.28388C4.11773 6.28388 4.31586 5.80473 4.79775 5.77619C4.47668 5.64447 4.23354 5.4672 4.16713 5.13679C3.00577 5.38432 2.0195 4.31517 2.2835 3.23889C1.23576 2.6873 1.21874 1.65217 1.7385 1.03692C2.2802 0.396416 3.1825 0.254814 3.98985 0.945262C5.35702 0.187855 6.90256 1.1154 6.80816 2.67302C7.76425 2.60936 8.34492 3.44525 8.23845 4.31572C8.39597 3.93208 8.58038 3.75425 8.93383 3.67741L9.40748 3.88378Z"
    fill="white" />
<path fill-rule="evenodd" clip-rule="evenodd"
    d="M11.7564 2.0144L11.9875 2.17961C11.5391 3.12581 10.7454 4.13075 10.066 4.68343L9.80637 4.48804C10.2883 3.70429 11.3223 2.41067 11.7564 2.0144ZM5.0671 7.21141L5.22297 7.44247C4.65656 8.02315 3.60827 8.79756 3.05174 9.0665L2.8344 8.83049C3.37282 8.24982 4.40135 7.48967 5.0671 7.21141ZM6.42164 4.39968L6.14832 4.73777C5.40683 4.25149 3.94361 2.94415 3.61376 2.47269L3.84427 2.23723C4.55283 2.59618 5.93537 3.82888 6.42164 4.39968ZM5.04624 16.8057C5.13076 17.23 5.05996 17.6998 5.44251 18.1586C5.57752 18.3195 6.32011 19.2969 6.85853 19.8019C6.12692 20.09 4.6637 20.685 3.61047 20.8172C3.39971 20.8441 3.16261 20.9918 2.96393 21.1054C2.83221 21.3304 2.69609 21.7327 2.63901 22.1872C2.5984 22.5121 2.60389 22.8732 2.60389 23.242C2.60389 23.567 2.77567 24.5883 3.13901 25.2744C3.50289 25.9605 3.85196 26.2673 4.2817 26.4676C4.36677 26.4303 4.55393 26.4023 4.84591 26.3957C5.64119 26.3776 6.26358 26.8172 6.538 27.1943C6.64283 27.3392 6.85359 27.3677 7.13075 27.3677C7.77235 27.3677 8.47816 27.1564 9.1483 26.9012C9.29155 26.7832 9.6955 26.5142 10.0923 26.2025C10.4886 25.8919 12.6977 24.0181 13.6752 23.545C14.19 23.8238 15.0352 24.1828 15.9079 24.1828C15.9584 24.1828 16.1263 24.185 16.3047 24.1454C16.5775 24.0834 16.9271 23.9621 17.3667 23.8754C18.1543 23.7223 19.078 23.5873 19.3475 23.5911C20.0719 23.6026 22.1954 23.6575 22.6987 23.6575C23.2267 23.6575 23.9797 23.6114 24.2673 23.5834C24.7119 23.4363 25.7025 23.1619 26.6515 22.7239C27.5982 22.3046 29.5916 20.921 29.9177 20.6048C30.0763 20.4632 30.2168 20.3079 30.3205 20.1696C30.3595 20.1158 30.3737 20.0944 30.3737 20.0516L30.3628 18.6537C30.3628 18.6537 30.8392 18.1252 31.0214 17.9419C31.0389 17.9248 31.04 17.9001 31.0373 17.8831C30.9555 17.612 30.8737 16.7684 30.9204 15.9128L30.438 15.6878C30.4162 16.5865 30.1496 17.4623 29.6668 18.2207C28.9495 18.3343 27.5807 18.7585 27.0878 19.3194L27.3589 19.3968C27.8216 19.1416 28.3172 18.9627 28.8836 18.9627C29.3842 18.9627 29.6048 19.0944 29.6048 19.2349C29.6048 19.3337 29.5104 19.5703 29.4742 19.6455C29.4308 19.7311 29.4023 19.8403 29.3183 19.9314C28.6343 20.682 27.8328 21.3163 26.9451 21.8096C26.3161 22.1614 25.7228 22.3979 24.7953 22.6608C24.5176 22.7393 24.1367 22.8518 23.8892 22.9374C23.5395 22.9265 21.713 22.8732 20.646 22.8732C19.5796 22.8732 17.3799 23.0285 16.6806 23.2053C16.3634 23.2854 16.2844 23.4133 15.9155 23.4133C15.2267 23.4133 14.3228 23.0637 13.7679 22.7947C13.6878 22.8183 13.4869 22.9072 13.2866 23.0071C12.8925 23.2031 12.0166 24.4188 11.5072 24.051C11.2471 24.584 10.1241 25.0889 9.73996 25.6416C9.78222 25.3523 10.2356 23.4753 10.2784 23.0999C10.2861 23.0335 10.2915 22.9797 10.2493 22.9089C9.8393 22.2239 8.69331 21.7887 8.04732 21.6625C7.85742 21.6251 7.76412 21.5993 7.63679 21.5703L6.61758 21.2624L5.67192 21.5703L6.76303 21.7794L5.37829 22.697C5.61869 22.6048 7.11099 22.191 7.22131 22.1581C7.34315 22.1218 7.50616 22.0862 7.68399 22.1482C7.88706 22.219 8.4628 22.3507 8.80527 22.4698C9.0067 22.5395 9.33656 22.9094 9.42163 23.1065C9.4562 23.1888 9.46938 23.3617 9.49188 23.7442C9.5056 23.9852 9.44413 24.32 9.38595 24.5801C9.23337 25.2607 8.92382 25.7925 8.82613 25.9824C8.69112 26.2442 8.50451 26.3287 8.32065 26.4155C8.01878 26.5571 7.64996 26.646 7.23997 26.6515C6.95841 26.6547 6.77016 26.6399 6.64996 26.4769C6.27181 25.9665 5.33768 25.4714 4.38379 25.6558C3.79872 25.3018 3.21859 24.1592 3.21859 23.2492C3.21859 22.7036 3.49411 21.8436 3.6423 21.4116C4.59509 21.2843 6.50068 20.5582 7.42768 20.1372C7.62197 20.1273 8.15489 19.9391 8.66422 19.9391C9.91065 19.9391 11.1472 21.0291 11.898 21.7656C12.021 21.5631 12.252 21.2563 12.8892 21.2563C13.7718 21.2563 14.2767 22.0582 14.5297 22.8836L14.9896 22.5494C14.898 22.0364 14.6548 21.5625 14.2915 21.1888C13.9869 20.8842 13.4068 20.6312 12.9529 20.6312C12.6801 20.6312 12.3964 20.6921 12.2174 20.6921C11.5868 20.6921 11.33 20.4111 10.8645 20.0906C10.3618 19.7432 9.42657 19.2393 8.75917 19.2393C8.32943 19.2393 8.13623 19.4078 7.78168 19.4089C7.26028 19.4122 7.06654 19.1954 6.81681 18.8848C6.70759 18.7487 6.1796 18.2799 6.03855 18.0917C5.95732 17.9836 5.81353 17.5406 5.76139 17.3189L5.04624 16.8057Z"
    fill="white" />
<path fill-rule="evenodd" clip-rule="evenodd"
    d="M5.76319 17.3191C5.91467 17.481 6.06066 17.6599 6.25001 17.8048C6.43278 17.9431 6.66384 18.0633 6.88064 18.1862C7.18689 18.3597 7.53431 18.5584 7.87898 18.6676C8.18085 18.7587 8.57272 18.796 8.94045 18.796C9.46459 18.796 10.0831 18.6879 10.5952 18.9266C10.9388 19.0874 10.9618 19.4497 11.2346 19.5556C11.6594 19.7208 12.84 19.7592 13.4942 19.7592C14.79 19.7592 16.1918 19.5951 17.02 19.397L16.616 18.9519C16.043 19.043 14.3614 19.2263 13.5897 19.2263C12.5024 19.2263 11.4756 19.0529 11.4756 18.6023C11.4756 18.2916 11.8104 17.8421 12.4476 17.8421C13.132 17.8421 14.1665 18.2559 14.3575 18.3125C14.5491 18.3695 14.627 18.3542 14.7472 18.2987L15.1479 18.0918C14.616 17.8443 12.7648 17.2076 12.1199 17.2076C11.8147 17.2076 11.6495 17.2515 11.4514 17.5068C11.2039 17.8251 10.5431 18.1154 9.48765 18.1154C8.90916 18.1154 8.08151 18.0122 7.89984 17.9376C7.58206 17.807 6.95967 17.4458 6.56176 17.1582C6.04859 16.7883 5.60183 16.3778 5.29448 15.8986C5.20573 15.7613 5.159 15.6011 5.16001 15.4376C5.16111 15.313 5.19623 15.1972 5.20886 15.1056C5.30051 15.2329 5.39986 15.3251 5.52664 15.4442C6.08372 15.9865 6.90588 16.3937 7.7511 16.5556C7.99205 16.6017 8.20609 16.6379 8.44429 16.6379C8.80488 16.6379 9.13803 16.4447 9.34989 16.2554L9.01783 15.8696C8.91081 15.9019 8.68908 15.9019 8.54308 15.9019C7.31587 15.9019 5.75825 15.099 5.39986 14.1709C5.36418 14.0798 5.32137 14.0293 5.35705 13.9448C5.39272 13.8591 5.43718 13.6786 5.46297 13.5123C5.53487 13.5946 5.68306 13.7192 5.87131 13.8405C6.3274 14.133 7.19732 14.5381 7.36746 14.6445C7.80599 14.5183 8.13584 14.3712 8.39654 14.2362C8.70765 14.0728 9.05339 13.9865 9.40477 13.9843C10.3016 13.9843 11.3323 14.4958 12.3005 14.9727L12.9613 14.712C12.1023 14.1083 10.233 13.2631 9.19401 13.2631C8.58096 13.2631 8.00467 13.7115 7.59413 13.7115C7.0903 13.7115 5.64684 13.0079 5.64684 12.4212C5.64684 11.97 6.58097 11.7143 8.08315 11.5293C7.82179 11.9156 7.5759 12.3122 7.34606 12.7181L7.7286 12.9305C10.0815 9.52327 12.5288 7.31087 14.5875 5.96291C15.335 5.47279 15.5057 5.18685 15.767 4.65227C16.4047 3.34876 17.0063 2.34658 18.0524 2.34658C18.5408 2.34658 18.9398 2.62045 19.2137 2.96073L19.9711 3.18686L19.2044 3.70606L19.9881 4.01726C18.9656 4.3043 17.5683 5.29881 17.003 6.75819C15.913 6.81636 15.3872 7.69836 15.031 8.43765C14.7906 8.93601 14.4086 9.13524 13.8515 9.51229L9.39599 12.6182L10.009 12.7027L14.1254 9.94643C14.9371 9.39868 15.3235 8.99473 15.5178 8.6056C15.8998 7.84216 16.3109 7.27465 17.1182 7.27465C17.515 7.27465 17.9398 7.44479 18.2796 7.76532L19.0013 8.00132L18.2132 8.48321L18.874 8.8888C16.986 9.48046 15.8153 10.8334 15.1353 13.4201L15.6363 13.5337C15.8872 12.6769 16.1341 11.8915 16.5765 11.1983C17.6709 11.1857 18.7785 11.1457 19.8657 11.1457C22.7669 11.1457 25.1753 11.268 26.4749 11.6506L26.015 10.852C24.6242 10.616 22.6067 10.4936 19.8657 10.4936C18.9464 10.4936 18.0156 10.5277 17.0908 10.5375C17.6874 9.90581 18.5469 9.37453 19.8701 8.964L18.9311 8.44698L19.9739 7.8685L18.5529 7.33997C18.3043 7.11658 17.9953 6.91187 17.6067 6.81417C18.0611 5.41572 19.6116 4.59848 21.0973 4.03537L20.0567 3.61111L21.1067 3.03647L19.4903 2.52056C19.0683 2.02495 18.6616 1.79883 18.0381 1.79883C16.5392 1.79883 15.9091 3.10069 15.3147 4.25436C15.0019 4.86193 14.8037 5.11769 14.2719 5.46621C13.1193 6.22032 11.6495 7.37344 10.2467 8.85038C9.51344 8.32185 8.01619 6.77685 7.60895 5.93382C7.44869 6.13196 7.29007 6.5639 7.29007 6.5639C7.4432 6.72581 9.20774 8.50791 9.86305 9.26312L9.71487 9.42887C9.01619 9.56773 7.20006 9.74226 6.58207 9.65828L6.2352 10.2741C6.69677 10.2285 8.50082 10.0161 9.24945 9.97222C9.02002 10.2502 8.79785 10.534 8.58315 10.8235C6.26264 11.0869 4.71325 11.5628 4.71325 12.4201C4.71325 12.5611 4.76978 12.7214 4.76978 12.8729C4.76978 13.2318 4.63586 13.3635 4.38065 13.5243C4.21435 13.6286 4.20392 13.7016 4.27473 13.8004C4.34608 13.9009 4.70392 14.4299 4.70392 14.5342C4.70392 14.7055 4.53323 14.8783 4.39547 15.0315C4.27473 15.1665 4.27966 15.2022 4.37407 15.3723L5.04695 16.802L5.76319 17.3191ZM34.4908 9.35971C34.3426 9.51559 34.212 9.68188 34.1022 9.85861L33.7284 9.33392C34.9765 7.67092 38.2723 6.89046 40.2059 6.75325V5.86138C39.9606 5.93712 39.696 6.02219 39.4512 6.08036C39.1044 6.16379 38.786 6.24118 38.516 6.23404C38.246 6.22746 38.027 6.11933 37.926 5.97499C37.6664 5.60452 37.9073 5.0447 38.7569 4.5211L38.0868 3.96402C37.5698 4.63471 37.0605 5.37455 36.5424 5.81637C36.0715 6.21813 35.578 6.41845 35.1796 6.12098C34.965 5.96072 34.8843 5.88772 34.8629 5.4695C34.8914 4.85534 35.2652 3.91682 35.5945 3.31254L34.8014 3.21924C34.6604 4.14459 34.2811 4.93383 33.875 5.58476C33.3689 6.39705 32.7164 6.96675 32.0446 7.43327L31.6039 6.99913C32.1461 6.67915 32.825 6.15885 33.2921 5.44151C33.8338 4.60836 34.2734 3.57818 34.274 2.6424L36.5682 2.85974C36.246 3.26918 35.7142 4.20332 35.5122 4.874C35.4074 5.22417 35.4123 5.50243 35.5391 5.59738C35.7822 5.7796 36.2081 5.48871 36.6214 5.04579C37.2043 4.41956 37.7751 3.475 38.027 3.13801L39.6861 4.51451C38.9485 4.90529 38.2339 5.3515 38.3761 5.60232C38.5061 5.83064 38.9787 5.76204 39.4962 5.60342C39.9249 5.47105 40.3376 5.29158 40.7267 5.0683V7.31088C39.9271 7.2999 38.5725 7.44918 37.2679 7.8449C37.578 8.28288 38.4688 8.44369 39.0347 8.52163L38.7509 10.3416C37.3228 9.74171 36.2213 9.39264 34.4908 9.35971L35.0632 8.86795C36.3387 8.89429 37.617 9.26476 38.3415 9.62919L38.4452 8.9404C37.7926 8.85423 36.9705 8.4832 36.6225 8.06279C36.0544 8.27629 35.5166 8.54248 35.0632 8.86795L34.4908 9.35971Z"
    fill="white" />
<path fill-rule="evenodd" clip-rule="evenodd"
    d="M27.6543 15.1416L28.1856 13.9945C27.561 13.2555 26.9895 12.473 26.4754 11.6532L26.0155 10.8546C24.9529 8.83651 25.3399 7.87219 24.7729 6.98416C24.3042 6.25036 22.0276 6.707 21.65 6.78603L22.3086 5.69548L21.0106 5.79866L22.1105 4.49187C22.2307 4.32172 22.2872 4.1664 22.4145 3.71306C22.6088 3.02426 23.2005 1.84863 24.9332 1.84863C26.8563 1.84863 27.4524 3.40461 28.291 4.08078C29.436 5.00564 30.5409 5.97908 31.6027 6.99844L32.0434 7.43257C32.6115 8.01325 33.1927 8.61039 33.7284 9.33322L34.1021 9.85791C36.4172 13.2377 39.2936 19.6981 40.5653 22.6569C40.6883 22.9429 40.7761 23.2338 40.8524 23.4544C39.8924 22.9197 38.9597 22.3376 38.0577 21.7102L37.4869 21.3084C37.1287 21.0504 36.7747 20.7867 36.4248 20.5176L35.8381 20.0565C35.4852 19.7741 35.1373 19.4854 34.7948 19.1904L35.9523 25.9319C36.0374 26.3287 36.3765 26.2634 36.6504 25.9138C36.9243 25.5642 37.028 25.4687 36.9243 25.0071L35.8381 20.0565L36.4248 20.5176L37.466 24.7239C37.567 25.1031 37.7272 25.2233 38.1707 25.2425C38.6147 25.2618 38.7091 25.0916 38.6147 24.7996L37.4874 21.3084L38.0582 21.7102L39.1252 24.8457C39.399 25.6487 39.1252 25.7431 38.6438 25.7431C38.1625 25.7431 37.7283 25.6295 37.4638 25.8002C37.1998 25.9698 36.8683 26.4335 36.472 26.8402C36.1219 27.1981 35.6131 27.1048 35.5094 26.433L34.23 18.6932C33.4076 17.9577 32.6277 17.1759 31.8941 16.3518C31.5672 16.2111 31.2428 16.0645 30.921 15.9122L30.4386 15.6872C30.3247 15.6325 30.2087 15.5825 30.0906 15.5373C29.7366 15.9627 29.3969 16.4369 29.0006 16.7766C28.7899 16.9578 28.6461 17.0609 28.3349 17.0609C28.2388 17.0609 28.1197 17.0598 28.0089 16.9967C27.8903 16.9303 27.7789 16.7964 27.6549 16.6076C27.561 16.4638 27.4222 16.2805 27.3009 16.0769C27.0479 15.6526 26.7751 15.1197 26.5292 14.6888C26.2537 14.2042 26.0166 13.8431 25.9842 13.7832C25.9348 13.691 25.8003 13.5774 25.8003 13.5774C25.6653 13.7975 25.566 14.2218 25.566 14.4556L25.0846 14.2926C25.1483 13.9742 25.2762 13.5632 25.3464 13.365C25.3464 13.1949 25.1554 12.9682 24.9996 12.9682C24.78 12.9682 24.5539 13.2091 24.4403 13.6696L23.9518 13.882C24.0089 13.1383 24.263 12.3244 24.9996 12.3244C25.5945 12.3244 25.9628 12.7778 26.246 13.2026C26.5286 13.6263 27.4567 14.8941 27.6543 15.1416L28.0226 15.6081C28.0868 15.8996 28.2103 16.0681 28.2701 16.1614C28.398 16.3595 28.5396 16.3458 28.7306 16.168C28.8179 16.0878 29.0983 15.8595 29.37 15.5763C29.606 15.3299 29.8354 15.0308 29.9276 14.8793C30.1977 15.0006 30.701 15.2415 31.106 15.4193C29.3678 13.2778 27.7037 10.6784 26.982 8.91061C26.6834 8.1801 27.2668 7.93531 27.5484 8.65539C28.3135 10.6098 30.5506 14.0653 32.1933 15.8771C34.0923 17.9726 37.5747 21.0044 39.8403 22.2223C39.5121 21.5812 39.078 20.6613 38.5774 19.5949C35.8217 18.0362 33.0363 15.174 31.7383 12.7152L32.3091 12.7811C33.5176 14.9177 36.4034 17.7678 38.1087 18.5966C36.55 15.2887 34.5209 11.0961 32.9375 9.2926C30.9732 7.05606 28.8283 5.32611 27.8036 4.426C26.7937 3.53852 26.3777 2.42492 24.9238 2.42492C23.7246 2.42492 23.0945 3.28825 22.8541 4.15981C22.8042 4.32995 22.7762 4.43588 22.656 4.61261L22.0896 5.29263L23.3141 5.14389L22.6055 6.1351C22.6055 6.1351 24.5254 5.70426 25.1977 6.61644C25.9211 7.59997 25.454 8.70424 26.6417 10.8508C27.1642 11.7942 28.4276 13.4907 28.8503 13.8672L28.0221 15.6081L27.6543 15.1416ZM8.78509 15.4386L8.49475 15.2415C8.73866 15.0458 9.00759 14.8836 9.29442 14.7591C9.44877 14.6958 9.61337 14.6612 9.78014 14.657C10.1056 14.657 10.3861 14.7931 10.6599 14.9391C11.093 15.1696 11.5793 15.4407 11.9519 15.4407C12.0935 15.4407 12.2307 15.4073 12.391 15.4073C12.7598 15.4073 13.1138 15.5725 13.3163 15.5725C13.4393 15.5725 13.5244 15.4622 13.605 15.3463C13.8081 15.0538 14.0886 14.837 14.447 14.6872C14.8317 14.5264 15.2944 14.4622 15.7977 14.4622C16.1939 14.4622 16.5743 14.5192 16.7724 14.562C16.7724 14.562 16.47 14.9265 16.3943 15.0072C15.9941 15.0072 15.2318 14.9934 14.7422 15.1916C14.4415 15.3129 14.3339 15.4874 14.3339 15.7371C14.3339 16.0972 14.7367 16.2388 15.1857 16.3749C15.4502 16.455 15.7472 16.4748 15.9974 16.4748C16.3059 16.4748 16.897 16.359 17.481 16.2305C18.1862 16.0752 18.8415 15.8897 19.0331 15.8189L19.2878 16.2766C18.5029 16.5423 17.7005 16.7942 16.9557 16.9457C16.5348 17.0313 16.1336 17.084 15.7757 17.084C15.178 17.084 14.5293 16.8332 13.9958 16.5791C13.5458 16.3645 13.1446 16.1526 12.7856 16.1526C12.3822 16.1526 12.003 16.292 11.6292 16.5055C11.4464 16.6103 10.8948 16.9901 10.4036 17.1828C10.0266 17.3326 9.71922 17.4155 9.33723 17.4155C8.99694 17.4155 8.79387 17.3672 8.61769 17.23L9.20935 16.8677C9.28563 16.9429 9.4223 16.9567 9.50682 16.9567C9.59189 16.9567 9.69343 16.9457 9.92559 16.8496C10.0584 16.7936 10.2516 16.6751 10.3647 16.6021C10.5985 16.4512 10.6759 16.3628 10.7681 16.2904C10.947 16.1488 11.0128 15.9611 10.7845 15.7574C10.6728 15.652 10.5511 15.5575 10.4212 15.4753C10.2165 15.3529 10.0688 15.2333 9.69891 15.2333C9.26203 15.2316 8.95413 15.3518 8.78509 15.4386Z"
    fill="white" />
<path fill-rule="evenodd" clip-rule="evenodd"
    d="M17.027 15.6734C17.027 15.6734 16.6752 15.5757 16.5522 15.5664C16.7737 15.2726 17.0416 15.017 17.3453 14.8095C17.8256 14.4846 18.3283 14.3068 19.089 14.2607C19.2959 14.248 19.7174 14.208 19.9529 14.2178C20.1653 14.2277 20.5242 14.2414 20.8546 14.3024C21.0884 14.3463 21.3063 14.4116 21.4875 14.4396C21.5978 14.4566 21.9814 14.4511 22.1148 14.4297C22.6532 14.3452 23.2997 14.1372 23.64 13.9517L23.7816 14.4692C23.0544 14.8402 22.2328 15.1981 21.4809 15.1981C21.0978 15.1981 20.6911 15.169 20.3118 15.1339C19.6433 15.0697 19.0649 14.9807 18.8656 14.9807C18.3245 14.9807 17.5457 15.2327 17.027 15.6734ZM16.4902 18.5515L15.8064 18.2387C16.7548 17.7584 18.2037 17.2771 18.7981 17.1816C19.3931 17.0883 20.0731 17.0164 20.4644 16.8847C20.6439 17.338 20.9984 17.8227 21.5083 17.8227C21.6944 17.8227 22.0001 17.6822 22.3074 17.546C22.6527 17.394 22.9995 17.2277 23.179 17.147C23.3733 17.0614 24.0034 16.7848 24.5374 16.5466C24.8046 16.4252 25.0701 16.3 25.3338 16.1712L25.6927 16.3655C25.5851 16.8369 25.4057 17.4171 25.2037 17.832C25.1246 17.995 25.0456 18.1289 24.9605 18.2255C24.8047 18.4011 24.5528 18.6349 24.224 18.8677C23.865 19.1229 23.4276 19.3841 22.9633 19.6503C22.6016 19.8594 22.2377 20.0707 21.8689 20.2398L21.6774 19.8923C22.246 19.5707 22.8239 19.1635 23.3321 18.787C23.5725 18.6091 23.8052 18.4291 23.9715 18.2765C24.095 18.164 24.1724 18.0707 24.2339 17.9796C24.3848 17.7579 24.6307 17.3238 24.7059 17.1157C24.494 17.2195 23.6916 17.5982 23.3327 17.7859C22.9276 17.9994 22.2707 18.3336 21.9024 18.5082C21.6126 18.6443 21.3541 18.7195 21.1686 18.7195C20.7575 18.7195 20.5709 18.4236 20.4699 18.2447C20.2103 17.7815 19.932 17.7387 19.1999 17.7294C18.3503 17.7189 17.1845 18.0702 16.4902 18.5515ZM20.4814 16.4165C20.4814 16.4165 20.3821 16.0126 20.3349 15.8655C20.3349 15.8655 20.4529 15.8271 20.6088 15.8271C20.8634 15.8271 21.4929 15.8979 21.7542 15.8979C22.7377 15.8979 23.1005 15.5883 23.3892 15.3276C23.6356 15.1059 23.8887 14.9248 24.5577 14.9248C25.1477 14.9248 25.825 15.163 26.0187 15.2568L25.9765 15.7941C25.6578 15.6238 25.3031 15.532 24.9419 15.5263C24.6982 15.5263 24.4787 15.5455 24.3239 15.6262C24.1499 15.7162 24.044 15.8512 23.8804 15.9851C23.707 16.1278 23.4693 16.2661 23.1581 16.3808C22.8469 16.4956 22.4617 16.574 21.887 16.574C21.1285 16.5729 20.7174 16.4462 20.4814 16.4165Z"
    fill="white" />
<path fill-rule="evenodd" clip-rule="evenodd"
    d="M14.2526 20.4725L14.7059 20.2848C15.1214 20.4456 15.7218 20.6279 16.1395 20.6279C16.3909 20.6279 16.5983 20.5379 16.769 20.4616C16.9029 20.4017 18.4133 19.6608 19.1631 19.3886C19.4013 19.3029 19.6433 19.2547 19.7608 19.2547C19.9402 19.2547 19.9507 19.3348 20.0012 19.4177C20.1428 19.6438 21.258 21.2354 21.3711 21.3578C22.3167 21.0675 23.2854 20.6416 23.8442 20.1059C24.4265 19.5444 24.91 18.8946 25.3771 18.3919C25.5571 18.1976 25.7799 18.0219 25.8902 17.9632C26.3738 17.7058 27.8776 17.6844 28.5099 17.7124L28.135 18.2431C27.0209 18.2431 26.3974 18.3578 26.1169 18.5691C25.9984 18.6581 25.8194 18.8381 25.6488 19.0604C25.2684 19.5565 24.8529 20.2354 24.6866 20.3683C25.0126 20.5944 25.3694 20.7925 25.9353 20.7925C26.8793 20.7925 27.5554 20.202 27.9259 19.8683L28.2431 20.0571C28.0088 20.3617 27.7404 20.6734 27.3985 20.9061C27.0192 21.1635 26.5412 21.3304 26.2585 21.4089C25.7108 21.3051 24.5044 21.0614 24.2218 21.0049C23.1784 21.4303 21.4792 22.1174 20.9084 22.2892C20.7822 22.3208 20.6534 22.3412 20.5237 22.3501C20.0725 22.3748 19.4452 22.3715 18.8738 22.365C18.4682 22.3595 18.0846 22.3617 17.8919 22.3265L17.3887 21.8013C17.8327 21.8858 18.0056 21.9116 18.4205 21.9116C19.4024 21.9116 20.0341 21.7475 20.2426 21.6943C20.4177 21.6493 20.4468 21.5483 20.3947 21.3897C20.3118 21.1377 20.1664 20.8984 19.9452 20.6427C19.7941 20.4781 19.6282 20.3278 19.4496 20.1937C19.3146 20.1015 19.1828 20.0779 18.8124 20.2047C18.4688 20.3216 17.4029 20.8984 16.9435 21.1427C16.7163 21.264 16.5396 21.2991 16.1318 21.2025C15.6999 21.101 14.6669 20.7234 14.2526 20.4725ZM17.2081 8.64326C17.3107 8.64326 17.4091 8.60249 17.4817 8.52993C17.5543 8.45736 17.595 8.35894 17.595 8.25632C17.595 8.1537 17.5543 8.05528 17.4817 7.98272C17.4091 7.91015 17.3107 7.86938 17.2081 7.86938C17.1055 7.86938 17.007 7.91015 16.9345 7.98272C16.8619 8.05528 16.8212 8.1537 16.8212 8.25632C16.8212 8.35894 16.8619 8.45736 16.9345 8.52993C17.007 8.60249 17.1055 8.64326 17.2081 8.64326Z"
    fill="white" />
</svg>