<svg xmlns="http://www.w3.org/2000/svg" width="109" height="28" viewBox="0 0 109 28"
                                    fill="none">
                                    <g clip-path="url(#clip0_1_112)">
                                        <path
                                            d="M1.25308 6.30565C1.25308 6.30565 3.91172 17.2 4.33603 18.9683C4.83127 21.0323 5.72361 21.7919 8.2964 21.2796L9.95652 14.5252C10.3773 12.8474 10.6595 11.6513 10.93 9.9446H10.9775C11.1676 11.6681 11.4382 12.8524 11.7844 14.531C11.7844 14.531 12.4602 17.5974 12.8063 19.2079C13.1533 20.8179 14.1189 21.8326 16.639 21.2802L20.5946 6.30679H17.4009L16.0505 12.7805C15.6874 14.6649 15.3579 16.1373 15.1039 17.8612H15.0589C14.828 16.1545 14.5344 14.7404 14.1652 12.9044L12.7591 6.30679H9.43156L7.92748 12.7382C7.50137 14.6925 7.10282 16.2707 6.84938 17.9361H6.80348C6.54394 16.3677 6.19824 14.3843 5.8239 12.4925C5.8239 12.4925 4.9303 7.8924 4.61678 6.30679L1.25339 6.30722L1.25308 6.30565ZM31.6985 6.30565V21.279H34.7392V18.0995V6.30493H31.6985V6.30565ZM74.5236 6.30565V17.3518C74.5236 18.8747 74.8102 19.9417 75.4234 20.5936C75.9591 21.1637 76.8415 21.5329 77.8989 21.5329C78.7979 21.5329 79.6824 21.3624 80.0992 21.2071L80.0601 18.8309C79.7499 18.9073 79.393 18.9684 78.905 18.9684C77.8692 18.9684 77.5218 18.305 77.5218 16.9375V12.7113L80.17 12.7113V9.84648H77.5218V6.30569H74.5234L74.5236 6.30565ZM24.9032 9.77679C23.0135 9.77679 21.5135 10.3074 20.6958 10.7799L21.2942 12.8289C22.0425 12.3572 23.2341 11.9666 24.3622 11.9666C26.2302 11.9618 26.5355 13.0228 26.5355 13.7033V13.8642C22.4654 13.8581 19.8945 15.2665 19.8945 18.1374C19.8945 19.8902 21.2032 21.5329 23.479 21.5329C24.8798 21.5329 26.0515 20.9741 26.7536 20.0789H26.8225C26.8225 20.0789 27.2875 22.0231 29.8491 21.2796C29.7145 20.4705 29.6708 19.6078 29.6708 18.5687V14.5686C29.6708 12.0192 28.5823 9.77684 24.9033 9.77684L24.9032 9.77679ZM43.0922 9.77679C41.1895 9.77679 40.3344 10.7411 39.816 11.5592H39.7709V10.0307H36.8691V21.2797H39.926V14.6827C39.926 14.3734 39.9613 14.0463 40.0693 13.7618C40.3225 13.0976 40.9405 12.3207 41.9271 12.3207C43.1606 12.3207 43.7377 13.3635 43.7377 14.8684V21.2796H46.7913V14.6027C46.7913 14.3075 46.8318 13.9519 46.9187 13.6909C47.1697 12.9353 47.8359 12.3206 48.753 12.3206C50.0035 12.3206 50.6036 13.3452 50.6036 15.116V21.2796H53.6593V14.6543C53.6593 11.1603 51.8851 9.77685 49.8824 9.77685C48.9954 9.77685 48.2953 9.99925 47.6624 10.3878C47.1303 10.7143 46.6541 11.1781 46.2378 11.7889H46.1927C45.7084 10.5766 44.572 9.77685 43.0917 9.77685L43.0922 9.77679ZM59.8783 9.77679C57.9891 9.77679 56.4893 10.3074 55.6709 10.7799L56.2701 12.8289C57.0177 12.3572 58.21 11.9666 59.3376 11.9666C61.2042 11.9618 61.5103 13.0228 61.5103 13.7033V13.8642C57.4408 13.8581 54.8695 15.2665 54.8695 18.1374C54.8695 19.8902 56.179 21.5329 58.4559 21.5329C59.8557 21.5329 61.0277 20.9741 61.7286 20.0789H61.7977C61.7977 20.0789 62.2626 22.0231 64.8246 21.2796C64.6898 20.4705 64.6466 19.6078 64.6466 18.5687V14.5686C64.6466 12.0192 63.5578 9.77684 59.8783 9.77684L59.8783 9.77679ZM72.5727 9.77679C71.4021 9.77679 70.0704 10.5324 69.5114 12.1521H69.426V10.0306H66.6742V21.2796H69.8112V15.5194C69.8112 15.2086 69.83 14.9377 69.8792 14.6892C70.1112 13.4826 71.0341 12.7113 72.3587 12.7113C72.7223 12.7113 72.9826 12.7507 73.2641 12.7913V9.84638C73.0281 9.79868 72.8666 9.77669 72.5728 9.77669L72.5727 9.77679ZM26.6337 15.8576V17.2609C26.6337 17.4685 26.6156 17.6827 26.5581 17.8699C26.3228 18.6493 25.5154 19.3079 24.5061 19.3079C23.6646 19.3079 22.9962 18.8304 22.9962 17.8201C22.9962 16.2747 24.6973 15.8475 26.6338 15.8576H26.6337ZM61.6088 15.8576V17.2609C61.6088 17.4685 61.5904 17.6827 61.5333 17.8699C61.2979 18.6493 60.4908 19.3079 59.4815 19.3079C58.6398 19.3079 57.9713 18.8304 57.9713 17.8201C57.9713 16.2747 59.6724 15.8475 61.6089 15.8576H61.6088Z"
                                            fill="white" />
                                        <path
                                            d="M96.6107 0.890381C95.629 0.890381 94.8488 1.43857 94.8488 2.10593L95.4449 8.85647C95.5107 9.26317 96.0089 9.57689 96.6112 9.57689C97.2147 9.5761 97.7112 9.26266 97.7784 8.85647L98.3774 2.10593C98.3774 1.43863 97.5949 0.890438 96.6119 0.890438L96.6107 0.890381ZM86.8955 6.30534C86.3859 6.31743 85.8069 6.70328 85.4387 7.34176C84.9462 8.19196 85.0335 9.14207 85.6097 9.47539L91.7532 12.3364C92.137 12.4792 92.6582 12.2066 92.9601 11.6862C92.9601 11.6862 92.96 11.686 92.9601 11.686C93.2633 11.163 93.2399 10.575 92.9206 10.3142L87.372 6.42242C87.2279 6.33896 87.0658 6.3014 86.8959 6.30543L86.8955 6.30534ZM106.326 6.30534C106.156 6.30131 105.994 6.33887 105.85 6.42234L100.301 10.3141C99.9836 10.5749 99.9601 11.1629 100.262 11.6859L100.262 11.6862C100.565 12.2065 101.085 12.4791 101.468 12.3363L107.615 9.47545C108.193 9.14213 108.276 8.19206 107.787 7.34182C107.417 6.70332 106.837 6.3175 106.328 6.3054L106.326 6.30534ZM91.9827 15.2117C91.9033 15.2106 91.8262 15.2229 91.7541 15.2501L85.6105 18.1077C85.0343 18.4424 84.947 19.3929 85.4395 20.244C85.9305 21.0925 86.796 21.4959 87.3724 21.1632L92.9215 17.2744C93.2408 17.0104 93.2643 16.4226 92.961 15.9001L92.9635 15.9013C92.7182 15.4757 92.3271 15.2163 91.9827 15.2116L91.9827 15.2117ZM101.241 15.2117C100.897 15.2164 100.507 15.4758 100.261 15.9014L100.263 15.9002C99.9615 16.4226 99.9849 17.0105 100.302 17.2745L105.852 21.1633C106.427 21.496 107.293 21.0926 107.787 20.2441C108.276 19.393 108.193 18.4425 107.614 18.1077L101.47 15.2502C101.398 15.223 101.321 15.2107 101.241 15.2118L101.241 15.2117ZM96.6098 18.0094C96.0085 18.0101 95.5115 18.3225 95.4458 18.7282L94.8496 25.4784C94.8496 26.1469 95.6298 26.694 96.6115 26.694C97.595 26.694 98.3767 26.1469 98.3767 25.4784L97.7791 18.7282C97.7119 18.3225 97.2155 18.0102 96.612 18.0094H96.6098H96.6098Z"
                                            fill="white" />
                                    </g>
                                    <defs>
                                        <clipPath id="clip0_1_112">
                                            <rect width="107.998" height="26.95" fill="white"
                                                transform="translate(0.712372 0.417725)" />
                                        </clipPath>
                                    </defs>
                                </svg>