<svg xmlns="http://www.w3.org/2000/svg" width="90" height="28" viewBox="0 0 90 28" fill="none">
    <g clip-path="url(#clip0_1_125)">
        <path fill-rule="evenodd" clip-rule="evenodd" d="M55.2572 21.4934C50.0854 25.3239 42.5892 27.3677 36.1351 27.3677C27.0854 27.3677 18.9384 24.0043 12.7748 18.4103C12.2906 17.9704 12.7245 17.3709 13.3056 17.7135C19.9572 21.6024 28.1818 23.942 36.6775 23.942C42.4071 23.942 48.7102 22.7508 54.5057 20.2788C55.3812 19.9051 56.1134 20.855 55.2572 21.4934Z" fill="white"></path>
        <path fill-rule="evenodd" clip-rule="evenodd" d="M57.407 19.0216C56.7484 18.173 53.0371 18.6207 51.3713 18.8192C50.8638 18.8815 50.7863 18.4377 51.2434 18.1185C54.1993 16.028 59.0495 16.6314 59.6152 17.3321C60.1808 18.0367 59.4679 22.9222 56.6903 25.254C56.2641 25.6121 55.8574 25.4214 56.0472 24.9465C56.6709 23.3816 58.0694 19.8741 57.407 19.0216Z" fill="white"></path>
        <path fill-rule="evenodd" clip-rule="evenodd" d="M51.4878 3.3606L51.4878 1.32855C51.4878 1.02102 51.7202 0.814697 51.9991 0.814697L61.0527 0.814697C61.3433 0.814697 61.5757 1.02491 61.5757 1.32855V3.06864C61.5718 3.3606 61.3278 3.7421 60.8939 4.34548L56.2024 11.0762C57.9457 11.0333 59.7859 11.2942 61.3665 12.1895C61.7229 12.3919 61.8198 12.6878 61.8469 12.9798V15.1481C61.8469 15.4439 61.5215 15.7904 61.1805 15.6113C58.3951 14.1437 54.6955 13.9841 51.6156 15.6269C51.3018 15.7982 50.9725 15.4556 50.9725 15.1597V13.1004C50.9725 12.7695 50.9764 12.2051 51.3057 11.7029L56.7409 3.87056L52.0108 3.87056C51.7202 3.87056 51.4878 3.66424 51.4878 3.3606Z" fill="white"></path>
        <path fill-rule="evenodd" clip-rule="evenodd" d="M18.4614 16.0396H15.707C15.4436 16.0201 15.2344 15.8216 15.215 15.5686L15.215 1.36366C15.215 1.07949 15.4513 0.853703 15.7457 0.853703L18.3142 0.853703C18.5815 0.865373 18.7946 1.0717 18.8139 1.32863V3.1855H18.8643C19.5345 1.39091 20.7936 0.553955 22.4904 0.553955C24.2143 0.553955 25.2913 1.39091 26.0661 3.1855C26.7324 1.39091 28.2472 0.553955 29.8704 0.553955C31.0248 0.553955 32.2878 1.03277 33.0587 2.10719C33.9303 3.30228 33.7521 5.03848 33.7521 6.56057L33.7483 15.5257C33.7483 15.8099 33.5119 16.0396 33.2175 16.0396H30.467C30.1919 16.0201 29.9711 15.7982 29.9711 15.5257V7.99702C29.9711 7.39753 30.0253 5.90269 29.8936 5.33433C29.6883 4.3806 29.0723 4.11199 28.2743 4.11199C27.6079 4.11199 26.9106 4.55966 26.6278 5.27594C26.345 5.99222 26.3721 7.19121 26.3721 7.99702V15.5257C26.3721 15.8099 26.1358 16.0396 25.8414 16.0396H23.0908C22.8119 16.0201 22.595 15.7982 22.595 15.5257L22.5911 7.99702C22.5911 6.41265 22.8507 4.08085 20.8943 4.08085C18.9147 4.08085 18.9921 6.35425 18.9921 7.99702V15.5257C18.9921 15.8099 18.7558 16.0396 18.4614 16.0396" fill="white"></path>
        <path fill-rule="evenodd" clip-rule="evenodd" d="M69.3703 0.553955C73.4574 0.553955 75.6694 4.08085 75.6694 8.56538C75.6694 12.8981 73.2249 16.3354 69.3703 16.3354C65.3568 16.3354 63.1719 12.8085 63.1719 8.41356C63.1719 3.99131 65.3839 0.553955 69.3703 0.553955ZM69.3935 3.45411C67.3636 3.45411 67.2357 6.23358 67.2357 7.96588C67.2357 9.70208 67.2086 13.408 69.3703 13.408C71.5049 13.408 71.6056 10.4184 71.6056 8.59652C71.6056 7.39753 71.5552 5.96498 71.195 4.82827C70.885 3.8395 70.2691 3.45411 69.3935 3.45411Z" fill="white"></path>
        <path fill-rule="evenodd" clip-rule="evenodd" d="M80.9688 16.0396H78.226C77.9509 16.0201 77.7301 15.7982 77.7301 15.5257L77.7262 1.31695C77.7495 1.05613 77.978 0.853703 78.257 0.853703L80.8099 0.853703C81.0501 0.865373 81.2477 1.02888 81.3019 1.25077V3.42296H81.3523C82.1232 1.48045 83.2041 0.553955 85.1062 0.553955C86.342 0.553955 87.5468 1.00163 88.3216 2.22787C89.0422 3.36457 89.0422 5.27594 89.0422 6.65011V15.5919C89.0112 15.841 88.7826 16.0396 88.5115 16.0396H85.7493C85.4975 16.0201 85.2883 15.8333 85.2612 15.5919V7.87635C85.2612 6.32311 85.4394 4.0497 83.5372 4.0497C82.867 4.0497 82.2511 4.50127 81.945 5.18641C81.5576 6.05451 81.5073 6.91871 81.5073 7.87635V15.5257C81.5034 15.8099 81.2632 16.0396 80.9688 16.0396" fill="white"></path>
        <path fill-rule="evenodd" clip-rule="evenodd" d="M44.2705 9.25442C44.2705 10.3327 44.2976 11.232 43.7553 12.1896C43.3175 12.9682 42.6202 13.447 41.8492 13.447C40.7916 13.447 40.1718 12.6373 40.1718 11.4422C40.1718 9.08314 42.2754 8.65493 44.2705 8.65493V9.25442ZM47.0482 16.0007C46.8661 16.1642 46.6027 16.1759 46.3973 16.0669C45.4831 15.3039 45.3165 14.9496 44.8167 14.2217C43.3059 15.771 42.2328 16.2342 40.2764 16.2342C37.9559 16.2342 36.1544 14.7978 36.1544 11.921C36.1544 9.67485 37.3631 8.14497 39.0909 7.39755C40.5863 6.73577 42.6744 6.61899 44.2705 6.43602V6.07788C44.2705 5.42 44.3209 4.64143 43.9335 4.07308C43.6003 3.56312 42.9572 3.35291 42.3877 3.35291C41.3379 3.35291 40.4042 3.89401 40.1757 5.01514C40.1292 5.26429 39.9471 5.50953 39.6953 5.52121L37.0261 5.23314C36.8014 5.18254 36.5496 4.99957 36.6154 4.65311C37.2275 1.39872 40.1563 0.417725 42.7751 0.417725C44.1155 0.417725 45.8666 0.775865 46.9242 1.79578C48.2646 3.05316 48.1368 4.73097 48.1368 6.5567V10.8699C48.1368 12.1663 48.6714 12.7346 49.175 13.4353C49.3493 13.6844 49.3881 13.9842 49.1634 14.1711C48.6016 14.6421 47.6021 15.518 47.052 16.0085L47.0482 16.0007" fill="white"></path>
        <path fill-rule="evenodd" clip-rule="evenodd" d="M8.16067 9.25491C8.16067 10.3332 8.18778 11.2325 7.64542 12.1901C7.20766 12.9687 6.51421 13.4475 5.73941 13.4475C4.6818 13.4475 4.06583 12.6378 4.06583 11.4427C4.06583 9.08363 6.16942 8.65542 8.16067 8.65542V9.25491ZM10.9383 16.0012C10.7563 16.1647 10.4928 16.1763 10.2875 16.0673C9.37323 15.3043 9.21052 14.9501 8.7069 14.2221C7.19603 15.7715 6.12681 16.2347 4.16656 16.2347C1.8499 16.2347 0.0446091 14.7983 0.0446091 11.9215C0.0446091 9.67534 1.25717 8.14546 2.98111 7.39804C4.47648 6.73626 6.56457 6.61947 8.16067 6.43651V6.07837C8.16067 5.42048 8.21103 4.64192 7.8275 4.07357C7.49046 3.56361 6.84737 3.3534 6.28177 3.3534C5.23191 3.3534 4.2944 3.8945 4.06583 5.01563C4.01934 5.26477 3.83727 5.51002 3.58933 5.5217L0.916262 5.23363C0.691569 5.18302 0.443632 5.00006 0.505616 4.6536C1.12158 1.39921 4.04646 0.418213 6.6653 0.418213C8.0057 0.418213 9.75675 0.776353 10.8144 1.79627C12.1548 3.05365 12.0269 4.73146 12.0269 6.55719V10.8704C12.0269 12.1667 12.5615 12.7351 13.0652 13.4358C13.2434 13.6849 13.2821 13.9847 13.0574 14.1715C12.4957 14.6426 11.4962 15.5185 10.9461 16.009L10.9383 16.0012" fill="white"></path>
    </g>
    <defs>
        <clipPath id="clip0_1_125">
            <rect width="88.9977" height="26.95" fill="white" transform="translate(0.0446272 0.417725)"></rect>
        </clipPath>
    </defs>
</svg>