<svg xmlns="http://www.w3.org/2000/svg" width="23" height="28" viewBox="0 0 23 28"
fill="none">
<g clip-path="url(#clip0_1_145)">
    <path
        d="M22.498 21.4202C22.0905 22.3617 21.608 23.2284 21.0491 24.0253C20.2872 25.1116 19.6634 25.8635 19.1826 26.281C18.4374 26.9664 17.6389 27.3174 16.7838 27.3374C16.17 27.3374 15.4297 27.1627 14.568 26.8084C13.7035 26.4557 12.909 26.281 12.1825 26.281C11.4206 26.281 10.6035 26.4557 9.72946 26.8084C8.85411 27.1627 8.14894 27.3473 7.60979 27.3656C6.78984 27.4006 5.97254 27.0396 5.15675 26.281C4.63607 25.8269 3.9848 25.0483 3.2046 23.9454C2.36751 22.7676 1.67931 21.4019 1.14016 19.8448C0.562754 18.163 0.2733 16.5344 0.2733 14.9577C0.2733 13.1516 0.663564 11.5939 1.44526 10.2885C2.0596 9.24 2.87689 8.41289 3.89979 7.8057C4.92269 7.19852 6.02794 6.8891 7.21819 6.8693C7.86946 6.8693 8.72352 7.07076 9.78485 7.46668C10.8432 7.86393 11.5227 8.06538 11.8207 8.06538C12.0434 8.06538 12.7983 7.82982 14.0781 7.36021C15.2883 6.9247 16.3097 6.74437 17.1465 6.8154C19.4138 6.99839 21.1173 7.89221 22.2502 9.5025C20.2223 10.7312 19.2192 12.4521 19.2392 14.6598C19.2575 16.3794 19.8813 17.8103 21.1073 18.9465C21.6629 19.4739 22.2834 19.8814 22.9738 20.1709C22.8241 20.6051 22.666 21.0209 22.498 21.4202ZM17.2978 0.957122C17.2978 2.30493 16.8054 3.56337 15.824 4.72817C14.6395 6.1129 13.2069 6.91305 11.6533 6.78679C11.6335 6.6251 11.622 6.45492 11.622 6.27609C11.622 4.9822 12.1853 3.59747 13.1856 2.46528C13.685 1.89202 14.3201 1.41537 15.0903 1.03514C15.8589 0.66058 16.5858 0.453441 17.2696 0.417969C17.2895 0.598149 17.2978 0.778342 17.2978 0.957104V0.957122Z"
        fill="white" />
</g>
<defs>
    <clipPath id="clip0_1_145">
        <rect width="22.7005" height="26.95" fill="white"
            transform="translate(0.273361 0.417725)" />
    </clipPath>
</defs>
</svg>